<svg width="33" height="33" viewBox="0 0 33 33" fill="none" xmlns="http://www.w3.org/2000/svg">
<g clip-path="url(#clip0_1211_116)">
<path d="M3.45471 3.52056C2.77257 4.18991 2.52106 5.17787 2.79274 6.09732L9.10985 27.5372C9.38307 28.5073 10.1599 29.1929 11.1444 29.3748C12.1463 29.5607 13.415 28.8945 13.9435 28.0283L18.0442 21.303C18.4646 20.6132 18.3554 19.7253 17.7789 19.1577L10.0194 11.5007C9.61542 11.1153 9.61315 10.4751 10.0144 10.0867C10.4023 9.69853 11.0331 9.69629 11.4371 10.0817L19.198 17.7521C19.7731 18.321 20.666 18.4245 21.3571 18.0019L28.1206 13.8775C28.9241 13.3946 29.3776 12.5659 29.3744 11.659C29.374 11.5522 29.3736 11.4322 29.3597 11.3254C29.2219 10.2855 28.5077 9.46108 27.4999 9.15785L6.04284 2.87112C5.12918 2.59422 4.13687 2.85121 3.45471 3.52056Z" fill="white"/>
</g>
<defs>
<clipPath id="clip0_1211_116">
<rect width="32" height="32" fill="white" transform="translate(0.113281 32.1131) rotate(-90.2029)"/>
</clipPath>
</defs>
</svg>
